<?xml version="1.0" encoding="utf-8"?>
<!-- Generator: Adobe Illustrator 16.0.0, SVG Export Plug-In . SVG Version: 6.00 Build 0)  -->
<!DOCTYPE svg PUBLIC "-//W3C//DTD SVG 1.1//EN" "http://www.w3.org/Graphics/SVG/1.1/DTD/svg11.dtd">
<svg version="1.1" id="Layer_1" xmlns="http://www.w3.org/2000/svg" xmlns:xlink="http://www.w3.org/1999/xlink" x="0px" y="0px"
	 width="32px" height="32px" viewBox="351.782 307.561 32 32" enable-background="new 351.782 307.561 32 32" xml:space="preserve">
<path fill="#005BB8" d="M383.722,320.55c-0.039-0.051-0.018-0.11-0.021-0.167c-0.032-0.444-0.025-0.893-0.091-1.335
	c-0.084-0.571-0.21-1.135-0.364-1.69c-0.376-1.349-0.913-2.63-1.621-3.838c-0.499-0.849-1.068-1.646-1.713-2.389
	c-0.43-0.496-0.89-0.964-1.378-1.405c-0.331-0.297-0.496-0.21-0.749,0.042c-0.644,0.642-1.274,1.297-1.906,1.951
	c-0.579,0.596-1.175,1.175-1.761,1.765c-0.21,0.213-0.21,0.304,0.012,0.497c0.503,0.437,0.979,0.899,1.394,1.418
	c0.549,0.685,1.008,1.424,1.36,2.229c0.525,1.198,0.799,2.451,0.847,3.755c0.017,0.484-0.023,0.964-0.077,1.446
	c-0.133,1.177-0.479,2.289-1.018,3.336c-0.69,1.342-1.641,2.47-2.848,3.383c-1.64,1.238-3.492,1.881-5.533,1.999
	c-0.701,0.04-1.4-0.018-2.09-0.14c-2.253-0.401-4.144-1.465-5.69-3.148c-0.142-0.154-0.136-0.186,0.06-0.271
	c0.885-0.395,1.746-0.834,2.545-1.385c0.144-0.097,0.249-0.078,0.357,0.045c0.231,0.259,0.499,0.482,0.761,0.706
	c1.108,0.947,2.319,1.739,3.642,2.356c0.085,0.042,0.169,0.085,0.263,0.101c0.15,0.025,0.217-0.05,0.183-0.2
	c-0.011-0.05-0.038-0.094-0.058-0.141c-0.63-1.381-1.067-2.819-1.271-4.323c-0.041-0.298-0.182-0.513-0.412-0.679
	c-0.124-0.092-0.224-0.204-0.333-0.31c-0.097-0.094-0.098-0.183-0.003-0.279c0.122-0.123,0.231-0.258,0.34-0.392
	c0.998-1.229,1.819-2.564,2.424-4.029c0.491-1.193,0.854-2.42,1.026-3.701c0.04-0.298-0.003-0.365-0.288-0.464
	c-1.422-0.494-2.896-0.712-4.393-0.77c-0.525-0.021-1.052-0.01-1.58,0.027c-0.836,0.058-1.663,0.171-2.481,0.345
	c-1.624,0.346-3.142,0.969-4.566,1.816c-1.835,1.091-3.372,2.514-4.658,4.213c-0.13,0.172-0.193,0.362-0.191,0.583
	c0.005,0.599,0.018,1.196,0.041,1.795c0.042,1.047,0.272,2.056,0.578,3.05c0.335,1.095,0.796,2.136,1.353,3.135
	c0.628,1.129,1.388,2.161,2.266,3.104c0.446,0.48,0.924,0.932,1.429,1.354c0.867,0.728,1.8,1.352,2.797,1.883
	c1.048,0.557,2.144,1.002,3.294,1.302c0.635,0.165,1.271,0.323,1.93,0.376c0.372,0.029,0.746,0.019,1.115,0.079
	c0.057,0,0.116,0,0.173,0c0.038-0.036,0.086-0.016,0.13-0.021c0.044,0.005,0.092-0.016,0.13,0.021c0.086,0,0.173,0,0.26,0
	c0.101-0.035,0.202-0.035,0.303,0c0.102,0,0.202,0,0.304,0c0.101-0.035,0.202-0.035,0.303,0c0.115,0,0.231,0,0.348,0
	c0.024-0.025,0.056-0.019,0.086-0.021c0.03,0.002,0.063-0.005,0.086,0.021c0.045,0,0.088,0,0.131,0
	c0.03-0.027,0.066-0.019,0.102-0.021c0.771-0.029,1.536-0.091,2.293-0.262c1.838-0.413,3.544-1.131,5.129-2.143
	c1.385-0.884,2.602-1.959,3.656-3.218c0.729-0.872,1.361-1.812,1.894-2.815c0.589-1.107,1.036-2.271,1.347-3.486
	c0.144-0.563,0.278-1.133,0.321-1.719c0.028-0.386,0.02-0.775,0.081-1.159c0-0.086,0-0.173,0-0.26c-0.033-0.058-0.033-0.116,0-0.173
	c0-0.072,0-0.145,0-0.216c-0.035-0.116-0.035-0.231,0-0.347c0-0.086,0-0.173,0-0.26c-0.035-0.115-0.035-0.231,0-0.346
	c0-0.073,0-0.145,0-0.218c-0.033-0.058-0.033-0.115,0-0.173C383.722,320.695,383.722,320.624,383.722,320.55z M362.722,319.19
	c0.742-0.213,1.497-0.361,2.263-0.459c0.158-0.02,0.317-0.025,0.473-0.052c0.173-0.029,0.219-0.007,0.132,0.175
	c-0.323,0.678-0.679,1.335-1.09,1.963c-0.178,0.271-0.365,0.536-0.568,0.832c-0.518-0.753-0.945-1.519-1.316-2.315
	C362.555,319.203,362.652,319.209,362.722,319.19z M359.608,327.31c-0.802-1.174-1.326-2.435-1.585-3.806
	c-0.113-0.597-0.17-1.2-0.178-1.808c-0.001-0.121,0.035-0.194,0.137-0.263c0.481-0.331,0.98-0.634,1.486-0.926
	c0.146-0.083,0.188-0.041,0.236,0.098c0.424,1.227,1.004,2.375,1.725,3.452c0.081,0.121,0.088,0.191-0.042,0.271
	c-0.444,0.271-0.688,0.678-0.865,1.161C360.292,326.119,359.969,326.708,359.608,327.31z"/>
</svg>
